<svg xmlns="http://www.w3.org/2000/svg" xmlns:xlink="http://www.w3.org/1999/xlink" width="250" zoomAndPan="magnify" viewBox="0 0 187.5 89.999999" height="120" preserveAspectRatio="xMidYMid meet" version="1.0"><defs><g/><clipPath id="65aadf4617"><path d="M 0 10.664062 L 71 10.664062 L 71 79.511719 L 0 79.511719 Z M 0 10.664062 " clip-rule="nonzero"/></clipPath><clipPath id="5b519a29bf"><path d="M 26.632812 24 L 58 24 L 58 45 L 26.632812 45 Z M 26.632812 24 " clip-rule="nonzero"/></clipPath><clipPath id="71239dfad9"><path d="M 30.300781 23.726562 C 30.300781 23.726562 38.664062 15.289062 51.140625 23.566406 C 51.140625 23.566406 62.535156 31.125 57.789062 43.066406 C 57.789062 43.066406 53.417969 52.839844 41.257812 49.972656 C 38.253906 49.203125 35.566406 47.816406 33.199219 45.800781 C 30.828125 43.789062 29.019531 41.359375 27.769531 38.511719 C 27.769531 38.511719 23.953125 30.058594 30.300781 23.726562 Z M 30.300781 23.726562 " clip-rule="nonzero"/></clipPath><clipPath id="f05ec90281"><path d="M 40 25 L 46 25 L 46 30 L 40 30 Z M 40 25 " clip-rule="nonzero"/></clipPath><clipPath id="1d4240aa4c"><path d="M 45.199219 28.488281 C 44.726562 29.464844 43.378906 29.71875 42.191406 29.054688 C 41.003906 28.390625 40.421875 27.066406 40.894531 26.085938 C 41.367188 25.109375 42.71875 24.859375 43.90625 25.519531 C 45.09375 26.183594 45.675781 27.511719 45.199219 28.488281 Z M 45.199219 28.488281 " clip-rule="nonzero"/></clipPath><linearGradient x1="0.503364" gradientTransform="matrix(4.483814, 2.004197, -1.601772, 3.610748, 41.606818, 24.480288)" y1="-0.335616" x2="0.49659" gradientUnits="userSpaceOnUse" y2="1.335847" id="385e34921b"><stop stop-opacity="1" stop-color="rgb(96.499634%, 54.499817%, 9.399414%)" offset="0"/><stop stop-opacity="1" stop-color="rgb(96.499634%, 54.499817%, 9.399414%)" offset="0.00334414"/><stop stop-opacity="1" stop-color="rgb(96.499634%, 54.499817%, 9.399414%)" offset="0.125"/><stop stop-opacity="1" stop-color="rgb(96.499634%, 54.499817%, 9.399414%)" offset="0.1875"/><stop stop-opacity="1" stop-color="rgb(96.44928%, 54.35791%, 9.399414%)" offset="0.21875"/><stop stop-opacity="1" stop-color="rgb(96.356201%, 54.08783%, 9.399414%)" offset="0.234375"/><stop stop-opacity="1" stop-color="rgb(96.2677%, 53.833008%, 9.399414%)" offset="0.25"/><stop stop-opacity="1" stop-color="rgb(96.179199%, 53.579712%, 9.399414%)" offset="0.265625"/><stop stop-opacity="1" stop-color="rgb(96.090698%, 53.32489%, 9.399414%)" offset="0.28125"/><stop stop-opacity="1" stop-color="rgb(96.002197%, 53.070068%, 9.399414%)" offset="0.296875"/><stop stop-opacity="1" stop-color="rgb(95.913696%, 52.815247%, 9.399414%)" offset="0.3125"/><stop stop-opacity="1" stop-color="rgb(95.825195%, 52.560425%, 9.399414%)" offset="0.328125"/><stop stop-opacity="1" stop-color="rgb(95.733643%, 52.294922%, 9.40094%)" offset="0.34375"/><stop stop-opacity="1" stop-color="rgb(95.652771%, 52.018738%, 9.410095%)" offset="0.351562"/><stop stop-opacity="1" stop-color="rgb(95.584106%, 51.745605%, 9.42688%)" offset="0.359375"/><stop stop-opacity="1" stop-color="rgb(95.513916%, 51.472473%, 9.44519%)" offset="0.367188"/><stop stop-opacity="1" stop-color="rgb(95.445251%, 51.199341%, 9.461975%)" offset="0.375"/><stop stop-opacity="1" stop-color="rgb(95.375061%, 50.926208%, 9.480286%)" offset="0.382812"/><stop stop-opacity="1" stop-color="rgb(95.306396%, 50.653076%, 9.49707%)" offset="0.390625"/><stop stop-opacity="1" stop-color="rgb(95.236206%, 50.379944%, 9.513855%)" offset="0.398438"/><stop stop-opacity="1" stop-color="rgb(95.167542%, 50.105286%, 9.532166%)" offset="0.40625"/><stop stop-opacity="1" stop-color="rgb(95.097351%, 49.832153%, 9.54895%)" offset="0.414062"/><stop stop-opacity="1" stop-color="rgb(95.028687%, 49.559021%, 9.565735%)" offset="0.421875"/><stop stop-opacity="1" stop-color="rgb(94.958496%, 49.285889%, 9.584045%)" offset="0.429688"/><stop stop-opacity="1" stop-color="rgb(94.889832%, 49.012756%, 9.60083%)" offset="0.4375"/><stop stop-opacity="1" stop-color="rgb(94.819641%, 48.739624%, 9.619141%)" offset="0.445312"/><stop stop-opacity="1" stop-color="rgb(94.750977%, 48.466492%, 9.635925%)" offset="0.453125"/><stop stop-opacity="1" stop-color="rgb(94.680786%, 48.193359%, 9.65271%)" offset="0.460937"/><stop stop-opacity="1" stop-color="rgb(94.612122%, 47.920227%, 9.671021%)" offset="0.46875"/><stop stop-opacity="1" stop-color="rgb(94.543457%, 47.647095%, 9.687805%)" offset="0.476562"/><stop stop-opacity="1" stop-color="rgb(94.473267%, 47.372437%, 9.70459%)" offset="0.484375"/><stop stop-opacity="1" stop-color="rgb(94.404602%, 47.099304%, 9.7229%)" offset="0.492188"/><stop stop-opacity="1" stop-color="rgb(94.334412%, 46.826172%, 9.739685%)" offset="0.5"/><stop stop-opacity="1" stop-color="rgb(94.265747%, 46.55304%, 9.75647%)" offset="0.507812"/><stop stop-opacity="1" stop-color="rgb(94.195557%, 46.279907%, 9.77478%)" offset="0.515625"/><stop stop-opacity="1" stop-color="rgb(94.125366%, 46.000671%, 9.793091%)" offset="0.523438"/><stop stop-opacity="1" stop-color="rgb(94.035339%, 45.657349%, 9.817505%)" offset="0.527344"/><stop stop-opacity="1" stop-color="rgb(93.981934%, 45.458984%, 9.83429%)" offset="0.53125"/><stop stop-opacity="1" stop-color="rgb(93.928528%, 45.259094%, 9.849548%)" offset="0.535156"/><stop stop-opacity="1" stop-color="rgb(93.876648%, 45.059204%, 9.864807%)" offset="0.539062"/><stop stop-opacity="1" stop-color="rgb(93.823242%, 44.859314%, 9.880066%)" offset="0.542969"/><stop stop-opacity="1" stop-color="rgb(93.771362%, 44.659424%, 9.896851%)" offset="0.546875"/><stop stop-opacity="1" stop-color="rgb(93.717957%, 44.459534%, 9.912109%)" offset="0.550781"/><stop stop-opacity="1" stop-color="rgb(93.666077%, 44.261169%, 9.927368%)" offset="0.554688"/><stop stop-opacity="1" stop-color="rgb(93.612671%, 44.061279%, 9.942627%)" offset="0.558594"/><stop stop-opacity="1" stop-color="rgb(93.559265%, 43.861389%, 9.959412%)" offset="0.5625"/><stop stop-opacity="1" stop-color="rgb(93.505859%, 43.661499%, 9.97467%)" offset="0.566406"/><stop stop-opacity="1" stop-color="rgb(93.453979%, 43.461609%, 9.989929%)" offset="0.570313"/><stop stop-opacity="1" stop-color="rgb(93.400574%, 43.261719%, 10.005188%)" offset="0.574219"/><stop stop-opacity="1" stop-color="rgb(93.348694%, 43.063354%, 10.021973%)" offset="0.578125"/><stop stop-opacity="1" stop-color="rgb(93.295288%, 42.863464%, 10.037231%)" offset="0.582031"/><stop stop-opacity="1" stop-color="rgb(93.243408%, 42.663574%, 10.05249%)" offset="0.585938"/><stop stop-opacity="1" stop-color="rgb(93.190002%, 42.463684%, 10.067749%)" offset="0.589844"/><stop stop-opacity="1" stop-color="rgb(93.136597%, 42.263794%, 10.084534%)" offset="0.59375"/><stop stop-opacity="1" stop-color="rgb(93.083191%, 42.063904%, 10.099792%)" offset="0.597656"/><stop stop-opacity="1" stop-color="rgb(93.031311%, 41.86554%, 10.115051%)" offset="0.601562"/><stop stop-opacity="1" stop-color="rgb(92.977905%, 41.665649%, 10.13031%)" offset="0.605469"/><stop stop-opacity="1" stop-color="rgb(92.926025%, 41.465759%, 10.147095%)" offset="0.609375"/><stop stop-opacity="1" stop-color="rgb(92.87262%, 41.265869%, 10.162354%)" offset="0.613281"/><stop stop-opacity="1" stop-color="rgb(92.82074%, 41.065979%, 10.177612%)" offset="0.617188"/><stop stop-opacity="1" stop-color="rgb(92.767334%, 40.866089%, 10.192871%)" offset="0.621094"/><stop stop-opacity="1" stop-color="rgb(92.713928%, 40.667725%, 10.209656%)" offset="0.625"/><stop stop-opacity="1" stop-color="rgb(92.660522%, 40.467834%, 10.224915%)" offset="0.628906"/><stop stop-opacity="1" stop-color="rgb(92.608643%, 40.267944%, 10.240173%)" offset="0.632812"/><stop stop-opacity="1" stop-color="rgb(92.555237%, 40.068054%, 10.255432%)" offset="0.636719"/><stop stop-opacity="1" stop-color="rgb(92.503357%, 39.868164%, 10.272217%)" offset="0.640625"/><stop stop-opacity="1" stop-color="rgb(92.449951%, 39.668274%, 10.287476%)" offset="0.644531"/><stop stop-opacity="1" stop-color="rgb(92.396545%, 39.46991%, 10.30426%)" offset="0.648438"/><stop stop-opacity="1" stop-color="rgb(92.34314%, 39.27002%, 10.319519%)" offset="0.652344"/><stop stop-opacity="1" stop-color="rgb(92.29126%, 39.070129%, 10.334778%)" offset="0.65625"/><stop stop-opacity="1" stop-color="rgb(92.237854%, 38.870239%, 10.350037%)" offset="0.660156"/><stop stop-opacity="1" stop-color="rgb(92.185974%, 38.670349%, 10.366821%)" offset="0.664062"/><stop stop-opacity="1" stop-color="rgb(92.132568%, 38.470459%, 10.38208%)" offset="0.667969"/><stop stop-opacity="1" stop-color="rgb(92.080688%, 38.272095%, 10.397339%)" offset="0.671875"/><stop stop-opacity="1" stop-color="rgb(92.027283%, 38.072205%, 10.412598%)" offset="0.675781"/><stop stop-opacity="1" stop-color="rgb(91.973877%, 37.872314%, 10.429382%)" offset="0.679688"/><stop stop-opacity="1" stop-color="rgb(91.920471%, 37.672424%, 10.444641%)" offset="0.683594"/><stop stop-opacity="1" stop-color="rgb(91.868591%, 37.472534%, 10.4599%)" offset="0.6875"/><stop stop-opacity="1" stop-color="rgb(91.815186%, 37.272644%, 10.475159%)" offset="0.691406"/><stop stop-opacity="1" stop-color="rgb(91.763306%, 37.07428%, 10.491943%)" offset="0.695312"/><stop stop-opacity="1" stop-color="rgb(91.7099%, 36.87439%, 10.507202%)" offset="0.699219"/><stop stop-opacity="1" stop-color="rgb(91.65802%, 36.6745%, 10.522461%)" offset="0.703125"/><stop stop-opacity="1" stop-color="rgb(91.604614%, 36.474609%, 10.53772%)" offset="0.707031"/><stop stop-opacity="1" stop-color="rgb(91.551208%, 36.274719%, 10.554504%)" offset="0.710938"/><stop stop-opacity="1" stop-color="rgb(91.497803%, 36.074829%, 10.569763%)" offset="0.714844"/><stop stop-opacity="1" stop-color="rgb(91.445923%, 35.876465%, 10.585022%)" offset="0.71875"/><stop stop-opacity="1" stop-color="rgb(91.397095%, 35.665894%, 10.604858%)" offset="0.722656"/><stop stop-opacity="1" stop-color="rgb(91.349792%, 35.455322%, 10.624695%)" offset="0.726562"/><stop stop-opacity="1" stop-color="rgb(91.304016%, 35.237122%, 10.646057%)" offset="0.730469"/><stop stop-opacity="1" stop-color="rgb(91.259766%, 35.018921%, 10.668945%)" offset="0.734375"/><stop stop-opacity="1" stop-color="rgb(91.213989%, 34.799194%, 10.690308%)" offset="0.738281"/><stop stop-opacity="1" stop-color="rgb(91.169739%, 34.580994%, 10.713196%)" offset="0.742187"/><stop stop-opacity="1" stop-color="rgb(91.123962%, 34.362793%, 10.736084%)" offset="0.746094"/><stop stop-opacity="1" stop-color="rgb(91.079712%, 34.144592%, 10.758972%)" offset="0.75"/><stop stop-opacity="1" stop-color="rgb(91.035461%, 33.924866%, 10.780334%)" offset="0.753906"/><stop stop-opacity="1" stop-color="rgb(90.991211%, 33.706665%, 10.803223%)" offset="0.757813"/><stop stop-opacity="1" stop-color="rgb(90.945435%, 33.486938%, 10.826111%)" offset="0.761719"/><stop stop-opacity="1" stop-color="rgb(90.901184%, 33.268738%, 10.848999%)" offset="0.765625"/><stop stop-opacity="1" stop-color="rgb(90.855408%, 33.050537%, 10.870361%)" offset="0.769531"/><stop stop-opacity="1" stop-color="rgb(90.811157%, 32.832336%, 10.89325%)" offset="0.773438"/><stop stop-opacity="1" stop-color="rgb(90.765381%, 32.61261%, 10.914612%)" offset="0.777344"/><stop stop-opacity="1" stop-color="rgb(90.72113%, 32.394409%, 10.9375%)" offset="0.78125"/><stop stop-opacity="1" stop-color="rgb(90.675354%, 32.176208%, 10.960388%)" offset="0.785156"/><stop stop-opacity="1" stop-color="rgb(90.631104%, 31.958008%, 10.983276%)" offset="0.789062"/><stop stop-opacity="1" stop-color="rgb(90.614319%, 31.878662%, 10.990906%)" offset="0.796875"/><stop stop-opacity="1" stop-color="rgb(90.59906%, 31.799316%, 10.998535%)" offset="0.8125"/><stop stop-opacity="1" stop-color="rgb(90.59906%, 31.799316%, 10.998535%)" offset="0.875"/><stop stop-opacity="1" stop-color="rgb(90.59906%, 31.799316%, 10.998535%)" offset="0.996656"/><stop stop-opacity="1" stop-color="rgb(90.59906%, 31.799316%, 10.998535%)" offset="1"/></linearGradient><clipPath id="85b0431916"><path d="M 33 36 L 41 36 L 41 44 L 33 44 Z M 33 36 " clip-rule="nonzero"/></clipPath><clipPath id="d6283fd9e9"><path d="M 33.8125 39.933594 C 33.816406 39.710938 33.84375 39.488281 33.894531 39.273438 C 33.945312 39.054688 34.015625 38.84375 34.109375 38.640625 C 34.207031 38.4375 34.320312 38.25 34.453125 38.070312 C 34.589844 37.890625 34.742188 37.730469 34.910156 37.582031 C 35.078125 37.4375 35.257812 37.3125 35.453125 37.203125 C 35.648438 37.09375 35.855469 37.007812 36.066406 36.945312 C 36.28125 36.882812 36.5 36.839844 36.71875 36.820312 C 36.941406 36.804688 37.164062 36.808594 37.386719 36.835938 C 37.855469 36.878906 38.300781 37 38.726562 37.207031 C 39.148438 37.410156 39.523438 37.6875 39.84375 38.03125 C 40.167969 38.375 40.417969 38.765625 40.597656 39.203125 C 40.777344 39.640625 40.871094 40.09375 40.882812 40.566406 C 40.878906 40.792969 40.851562 41.011719 40.800781 41.230469 C 40.75 41.449219 40.675781 41.660156 40.582031 41.859375 C 40.488281 42.0625 40.375 42.253906 40.238281 42.433594 C 40.105469 42.609375 39.953125 42.773438 39.785156 42.917969 C 39.617188 43.066406 39.433594 43.191406 39.238281 43.300781 C 39.042969 43.40625 38.839844 43.492188 38.625 43.558594 C 38.410156 43.621094 38.195312 43.664062 37.972656 43.679688 C 37.75 43.699219 37.527344 43.691406 37.308594 43.664062 C 36.839844 43.625 36.390625 43.5 35.96875 43.296875 C 35.542969 43.089844 35.171875 42.816406 34.847656 42.472656 C 34.527344 42.125 34.277344 41.734375 34.097656 41.296875 C 33.917969 40.863281 33.824219 40.40625 33.8125 39.933594 Z M 33.8125 39.933594 " clip-rule="nonzero"/></clipPath><linearGradient x1="0.502049" gradientTransform="matrix(-7.054729, 0.123608, -0.119836, -6.89144, 40.934767, 43.635019)" y1="-0.011144" x2="0.497906" gradientUnits="userSpaceOnUse" y2="1.01114" id="0e23f1d97e"><stop stop-opacity="1" stop-color="rgb(96.499634%, 54.499817%, 9.399414%)" offset="0"/><stop stop-opacity="1" stop-color="rgb(96.466064%, 54.402161%, 9.399414%)" offset="0.0040378"/><stop stop-opacity="1" stop-color="rgb(96.432495%, 54.30603%, 9.399414%)" offset="0.03125"/><stop stop-opacity="1" stop-color="rgb(96.377563%, 54.150391%, 9.399414%)" offset="0.0625"/><stop stop-opacity="1" stop-color="rgb(96.269226%, 53.839111%, 9.399414%)" offset="0.09375"/><stop stop-opacity="1" stop-color="rgb(96.160889%, 53.527832%, 9.399414%)" offset="0.125"/><stop stop-opacity="1" stop-color="rgb(96.052551%, 53.216553%, 9.399414%)" offset="0.15625"/><stop stop-opacity="1" stop-color="rgb(95.944214%, 52.903748%, 9.399414%)" offset="0.1875"/><stop stop-opacity="1" stop-color="rgb(95.835876%, 52.592468%, 9.399414%)" offset="0.21875"/><stop stop-opacity="1" stop-color="rgb(95.755005%, 52.359009%, 9.399414%)" offset="0.234375"/><stop stop-opacity="1" stop-color="rgb(95.692444%, 52.160645%, 9.403992%)" offset="0.25"/><stop stop-opacity="1" stop-color="rgb(95.61615%, 51.873779%, 9.41925%)" offset="0.265625"/><stop stop-opacity="1" stop-color="rgb(95.532227%, 51.539612%, 9.440613%)" offset="0.28125"/><stop stop-opacity="1" stop-color="rgb(95.446777%, 51.205444%, 9.461975%)" offset="0.296875"/><stop stop-opacity="1" stop-color="rgb(95.361328%, 50.871277%, 9.483337%)" offset="0.3125"/><stop stop-opacity="1" stop-color="rgb(95.277405%, 50.537109%, 9.5047%)" offset="0.328125"/><stop stop-opacity="1" stop-color="rgb(95.191956%, 50.202942%, 9.526062%)" offset="0.34375"/><stop stop-opacity="1" stop-color="rgb(95.106506%, 49.868774%, 9.547424%)" offset="0.359375"/><stop stop-opacity="1" stop-color="rgb(95.022583%, 49.533081%, 9.568787%)" offset="0.375"/><stop stop-opacity="1" stop-color="rgb(94.937134%, 49.198914%, 9.590149%)" offset="0.390625"/><stop stop-opacity="1" stop-color="rgb(94.851685%, 48.864746%, 9.611511%)" offset="0.40625"/><stop stop-opacity="1" stop-color="rgb(94.767761%, 48.530579%, 9.631348%)" offset="0.421875"/><stop stop-opacity="1" stop-color="rgb(94.682312%, 48.196411%, 9.65271%)" offset="0.4375"/><stop stop-opacity="1" stop-color="rgb(94.598389%, 47.862244%, 9.674072%)" offset="0.453125"/><stop stop-opacity="1" stop-color="rgb(94.512939%, 47.528076%, 9.695435%)" offset="0.46875"/><stop stop-opacity="1" stop-color="rgb(94.42749%, 47.193909%, 9.716797%)" offset="0.484375"/><stop stop-opacity="1" stop-color="rgb(94.343567%, 46.859741%, 9.738159%)" offset="0.5"/><stop stop-opacity="1" stop-color="rgb(94.258118%, 46.525574%, 9.759521%)" offset="0.515625"/><stop stop-opacity="1" stop-color="rgb(94.172668%, 46.191406%, 9.780884%)" offset="0.53125"/><stop stop-opacity="1" stop-color="rgb(94.107056%, 45.930481%, 9.797668%)" offset="0.539063"/><stop stop-opacity="1" stop-color="rgb(94.050598%, 45.715332%, 9.812927%)" offset="0.546875"/><stop stop-opacity="1" stop-color="rgb(93.986511%, 45.471191%, 9.832764%)" offset="0.554688"/><stop stop-opacity="1" stop-color="rgb(93.920898%, 45.227051%, 9.851074%)" offset="0.5625"/><stop stop-opacity="1" stop-color="rgb(93.856812%, 44.98291%, 9.870911%)" offset="0.570313"/><stop stop-opacity="1" stop-color="rgb(93.791199%, 44.73877%, 9.889221%)" offset="0.578125"/><stop stop-opacity="1" stop-color="rgb(93.727112%, 44.494629%, 9.909058%)" offset="0.585938"/><stop stop-opacity="1" stop-color="rgb(93.663025%, 44.250488%, 9.927368%)" offset="0.59375"/><stop stop-opacity="1" stop-color="rgb(93.597412%, 44.006348%, 9.947205%)" offset="0.601563"/><stop stop-opacity="1" stop-color="rgb(93.533325%, 43.762207%, 9.967041%)" offset="0.609375"/><stop stop-opacity="1" stop-color="rgb(93.469238%, 43.518066%, 9.985352%)" offset="0.617188"/><stop stop-opacity="1" stop-color="rgb(93.403625%, 43.273926%, 10.005188%)" offset="0.625"/><stop stop-opacity="1" stop-color="rgb(93.339539%, 43.029785%, 10.023499%)" offset="0.632813"/><stop stop-opacity="1" stop-color="rgb(93.275452%, 42.785645%, 10.043335%)" offset="0.640625"/><stop stop-opacity="1" stop-color="rgb(93.209839%, 42.541504%, 10.061646%)" offset="0.648438"/><stop stop-opacity="1" stop-color="rgb(93.145752%, 42.297363%, 10.081482%)" offset="0.65625"/><stop stop-opacity="1" stop-color="rgb(93.080139%, 42.053223%, 10.099792%)" offset="0.664063"/><stop stop-opacity="1" stop-color="rgb(93.016052%, 41.809082%, 10.119629%)" offset="0.671875"/><stop stop-opacity="1" stop-color="rgb(92.951965%, 41.564941%, 10.139465%)" offset="0.679688"/><stop stop-opacity="1" stop-color="rgb(92.886353%, 41.320801%, 10.157776%)" offset="0.6875"/><stop stop-opacity="1" stop-color="rgb(92.822266%, 41.07666%, 10.177612%)" offset="0.695313"/><stop stop-opacity="1" stop-color="rgb(92.758179%, 40.83252%, 10.195923%)" offset="0.703125"/><stop stop-opacity="1" stop-color="rgb(92.692566%, 40.588379%, 10.215759%)" offset="0.710938"/><stop stop-opacity="1" stop-color="rgb(92.628479%, 40.344238%, 10.23407%)" offset="0.71875"/><stop stop-opacity="1" stop-color="rgb(92.564392%, 40.100098%, 10.253906%)" offset="0.726563"/><stop stop-opacity="1" stop-color="rgb(92.498779%, 39.855957%, 10.272217%)" offset="0.734375"/><stop stop-opacity="1" stop-color="rgb(92.434692%, 39.611816%, 10.292053%)" offset="0.742188"/><stop stop-opacity="1" stop-color="rgb(92.36908%, 39.367676%, 10.31189%)" offset="0.75"/><stop stop-opacity="1" stop-color="rgb(92.304993%, 39.122009%, 10.3302%)" offset="0.757813"/><stop stop-opacity="1" stop-color="rgb(92.240906%, 38.877869%, 10.350037%)" offset="0.765625"/><stop stop-opacity="1" stop-color="rgb(92.175293%, 38.633728%, 10.368347%)" offset="0.773438"/><stop stop-opacity="1" stop-color="rgb(92.111206%, 38.389587%, 10.388184%)" offset="0.78125"/><stop stop-opacity="1" stop-color="rgb(92.047119%, 38.145447%, 10.406494%)" offset="0.789063"/><stop stop-opacity="1" stop-color="rgb(91.981506%, 37.901306%, 10.426331%)" offset="0.796875"/><stop stop-opacity="1" stop-color="rgb(91.917419%, 37.657166%, 10.444641%)" offset="0.804688"/><stop stop-opacity="1" stop-color="rgb(91.853333%, 37.413025%, 10.464478%)" offset="0.8125"/><stop stop-opacity="1" stop-color="rgb(91.78772%, 37.168884%, 10.482788%)" offset="0.820313"/><stop stop-opacity="1" stop-color="rgb(91.723633%, 36.924744%, 10.502625%)" offset="0.828125"/><stop stop-opacity="1" stop-color="rgb(91.659546%, 36.680603%, 10.522461%)" offset="0.835938"/><stop stop-opacity="1" stop-color="rgb(91.593933%, 36.436462%, 10.540771%)" offset="0.84375"/><stop stop-opacity="1" stop-color="rgb(91.529846%, 36.192322%, 10.560608%)" offset="0.851563"/><stop stop-opacity="1" stop-color="rgb(91.464233%, 35.948181%, 10.578918%)" offset="0.859375"/><stop stop-opacity="1" stop-color="rgb(91.401672%, 35.697937%, 10.600281%)" offset="0.867188"/><stop stop-opacity="1" stop-color="rgb(91.345215%, 35.437012%, 10.626221%)" offset="0.875"/><stop stop-opacity="1" stop-color="rgb(91.290283%, 35.168457%, 10.653687%)" offset="0.882813"/><stop stop-opacity="1" stop-color="rgb(91.235352%, 34.901428%, 10.681152%)" offset="0.890625"/><stop stop-opacity="1" stop-color="rgb(91.18042%, 34.634399%, 10.708618%)" offset="0.898438"/><stop stop-opacity="1" stop-color="rgb(91.125488%, 34.367371%, 10.736084%)" offset="0.90625"/><stop stop-opacity="1" stop-color="rgb(91.070557%, 34.098816%, 10.76355%)" offset="0.914063"/><stop stop-opacity="1" stop-color="rgb(91.015625%, 33.831787%, 10.791016%)" offset="0.921875"/><stop stop-opacity="1" stop-color="rgb(90.960693%, 33.564758%, 10.818481%)" offset="0.929688"/><stop stop-opacity="1" stop-color="rgb(90.907288%, 33.297729%, 10.845947%)" offset="0.9375"/><stop stop-opacity="1" stop-color="rgb(90.852356%, 33.029175%, 10.873413%)" offset="0.945313"/><stop stop-opacity="1" stop-color="rgb(90.797424%, 32.762146%, 10.900879%)" offset="0.953125"/><stop stop-opacity="1" stop-color="rgb(90.742493%, 32.495117%, 10.928345%)" offset="0.960938"/><stop stop-opacity="1" stop-color="rgb(90.687561%, 32.226562%, 10.955811%)" offset="0.96875"/><stop stop-opacity="1" stop-color="rgb(90.629578%, 31.945801%, 10.983276%)" offset="0.995962"/><stop stop-opacity="1" stop-color="rgb(90.59906%, 31.799316%, 10.998535%)" offset="1"/></linearGradient><clipPath id="c906366643"><path d="M 52 33 L 58 33 L 58 39 L 52 39 Z M 52 33 " clip-rule="nonzero"/></clipPath><clipPath id="fa328b3cba"><path d="M 52.863281 37.5 C 51.886719 36.320312 51.882812 34.859375 52.855469 34.234375 C 53.828125 33.613281 55.414062 34.0625 56.390625 35.238281 C 57.371094 36.417969 57.371094 37.878906 56.398438 38.5 C 55.425781 39.125 53.839844 38.675781 52.863281 37.5 Z M 52.863281 37.5 " clip-rule="nonzero"/></clipPath><linearGradient x1="0.502812" gradientTransform="matrix(-3.125964, 2.726376, -3.650447, -4.217294, 58.015592, 37.114071)" y1="-0.199443" x2="0.497142" gradientUnits="userSpaceOnUse" y2="1.199632" id="56c578e68a"><stop stop-opacity="1" stop-color="rgb(96.499634%, 54.499817%, 9.399414%)" offset="0"/><stop stop-opacity="1" stop-color="rgb(96.499634%, 54.499817%, 9.399414%)" offset="0.00541722"/><stop stop-opacity="1" stop-color="rgb(96.499634%, 54.499817%, 9.399414%)" offset="0.125"/><stop stop-opacity="1" stop-color="rgb(96.46759%, 54.411316%, 9.399414%)" offset="0.15625"/><stop stop-opacity="1" stop-color="rgb(96.400452%, 54.216003%, 9.399414%)" offset="0.171875"/><stop stop-opacity="1" stop-color="rgb(96.325684%, 54.00238%, 9.399414%)" offset="0.1875"/><stop stop-opacity="1" stop-color="rgb(96.252441%, 53.788757%, 9.399414%)" offset="0.203125"/><stop stop-opacity="1" stop-color="rgb(96.177673%, 53.57666%, 9.399414%)" offset="0.21875"/><stop stop-opacity="1" stop-color="rgb(96.102905%, 53.363037%, 9.399414%)" offset="0.234375"/><stop stop-opacity="1" stop-color="rgb(96.029663%, 53.149414%, 9.399414%)" offset="0.25"/><stop stop-opacity="1" stop-color="rgb(95.954895%, 52.935791%, 9.399414%)" offset="0.265625"/><stop stop-opacity="1" stop-color="rgb(95.881653%, 52.723694%, 9.399414%)" offset="0.28125"/><stop stop-opacity="1" stop-color="rgb(95.806885%, 52.510071%, 9.399414%)" offset="0.296875"/><stop stop-opacity="1" stop-color="rgb(95.732117%, 52.29187%, 9.399414%)" offset="0.3125"/><stop stop-opacity="1" stop-color="rgb(95.664978%, 52.06604%, 9.407043%)" offset="0.320312"/><stop stop-opacity="1" stop-color="rgb(95.606995%, 51.837158%, 9.422302%)" offset="0.328125"/><stop stop-opacity="1" stop-color="rgb(95.549011%, 51.608276%, 9.436035%)" offset="0.335938"/><stop stop-opacity="1" stop-color="rgb(95.491028%, 51.38092%, 9.451294%)" offset="0.34375"/><stop stop-opacity="1" stop-color="rgb(95.433044%, 51.152039%, 9.465027%)" offset="0.351562"/><stop stop-opacity="1" stop-color="rgb(95.375061%, 50.923157%, 9.480286%)" offset="0.359375"/><stop stop-opacity="1" stop-color="rgb(95.317078%, 50.694275%, 9.494019%)" offset="0.367187"/><stop stop-opacity="1" stop-color="rgb(95.259094%, 50.465393%, 9.509277%)" offset="0.375"/><stop stop-opacity="1" stop-color="rgb(95.201111%, 50.236511%, 9.52301%)" offset="0.382812"/><stop stop-opacity="1" stop-color="rgb(95.143127%, 50.007629%, 9.538269%)" offset="0.390625"/><stop stop-opacity="1" stop-color="rgb(95.085144%, 49.778748%, 9.552002%)" offset="0.398438"/><stop stop-opacity="1" stop-color="rgb(95.027161%, 49.549866%, 9.567261%)" offset="0.40625"/><stop stop-opacity="1" stop-color="rgb(94.967651%, 49.320984%, 9.580994%)" offset="0.414062"/><stop stop-opacity="1" stop-color="rgb(94.909668%, 49.092102%, 9.596252%)" offset="0.421875"/><stop stop-opacity="1" stop-color="rgb(94.851685%, 48.864746%, 9.609985%)" offset="0.429688"/><stop stop-opacity="1" stop-color="rgb(94.793701%, 48.635864%, 9.625244%)" offset="0.4375"/><stop stop-opacity="1" stop-color="rgb(94.735718%, 48.406982%, 9.638977%)" offset="0.445312"/><stop stop-opacity="1" stop-color="rgb(94.677734%, 48.178101%, 9.654236%)" offset="0.453125"/><stop stop-opacity="1" stop-color="rgb(94.619751%, 47.949219%, 9.667969%)" offset="0.460937"/><stop stop-opacity="1" stop-color="rgb(94.561768%, 47.720337%, 9.683228%)" offset="0.46875"/><stop stop-opacity="1" stop-color="rgb(94.503784%, 47.491455%, 9.698486%)" offset="0.476562"/><stop stop-opacity="1" stop-color="rgb(94.445801%, 47.262573%, 9.712219%)" offset="0.484375"/><stop stop-opacity="1" stop-color="rgb(94.387817%, 47.033691%, 9.727478%)" offset="0.492188"/><stop stop-opacity="1" stop-color="rgb(94.329834%, 46.80481%, 9.741211%)" offset="0.5"/><stop stop-opacity="1" stop-color="rgb(94.271851%, 46.575928%, 9.75647%)" offset="0.507812"/><stop stop-opacity="1" stop-color="rgb(94.213867%, 46.348572%, 9.770203%)" offset="0.515625"/><stop stop-opacity="1" stop-color="rgb(94.154358%, 46.11969%, 9.785461%)" offset="0.523438"/><stop stop-opacity="1" stop-color="rgb(94.088745%, 45.861816%, 9.802246%)" offset="0.53125"/><stop stop-opacity="1" stop-color="rgb(94.007874%, 45.552063%, 9.825134%)" offset="0.539062"/><stop stop-opacity="1" stop-color="rgb(93.919373%, 45.217896%, 9.8526%)" offset="0.546875"/><stop stop-opacity="1" stop-color="rgb(93.830872%, 44.883728%, 9.87854%)" offset="0.554688"/><stop stop-opacity="1" stop-color="rgb(93.742371%, 44.549561%, 9.90448%)" offset="0.5625"/><stop stop-opacity="1" stop-color="rgb(93.65387%, 44.213867%, 9.93042%)" offset="0.570312"/><stop stop-opacity="1" stop-color="rgb(93.565369%, 43.8797%, 9.95636%)" offset="0.578125"/><stop stop-opacity="1" stop-color="rgb(93.476868%, 43.545532%, 9.983826%)" offset="0.585938"/><stop stop-opacity="1" stop-color="rgb(93.388367%, 43.211365%, 10.009766%)" offset="0.59375"/><stop stop-opacity="1" stop-color="rgb(93.299866%, 42.877197%, 10.035706%)" offset="0.601562"/><stop stop-opacity="1" stop-color="rgb(93.211365%, 42.54303%, 10.061646%)" offset="0.609375"/><stop stop-opacity="1" stop-color="rgb(93.122864%, 42.208862%, 10.087585%)" offset="0.617188"/><stop stop-opacity="1" stop-color="rgb(93.034363%, 41.874695%, 10.113525%)" offset="0.625"/><stop stop-opacity="1" stop-color="rgb(92.945862%, 41.540527%, 10.140991%)" offset="0.632812"/><stop stop-opacity="1" stop-color="rgb(92.857361%, 41.20636%, 10.166931%)" offset="0.640625"/><stop stop-opacity="1" stop-color="rgb(92.76886%, 40.872192%, 10.192871%)" offset="0.648438"/><stop stop-opacity="1" stop-color="rgb(92.680359%, 40.538025%, 10.218811%)" offset="0.65625"/><stop stop-opacity="1" stop-color="rgb(92.591858%, 40.203857%, 10.244751%)" offset="0.664062"/><stop stop-opacity="1" stop-color="rgb(92.503357%, 39.86969%, 10.270691%)" offset="0.671875"/><stop stop-opacity="1" stop-color="rgb(92.414856%, 39.535522%, 10.298157%)" offset="0.679688"/><stop stop-opacity="1" stop-color="rgb(92.326355%, 39.201355%, 10.324097%)" offset="0.6875"/><stop stop-opacity="1" stop-color="rgb(92.237854%, 38.867188%, 10.350037%)" offset="0.695312"/><stop stop-opacity="1" stop-color="rgb(92.149353%, 38.53302%, 10.375977%)" offset="0.703125"/><stop stop-opacity="1" stop-color="rgb(92.060852%, 38.198853%, 10.401917%)" offset="0.710937"/><stop stop-opacity="1" stop-color="rgb(91.972351%, 37.864685%, 10.429382%)" offset="0.71875"/><stop stop-opacity="1" stop-color="rgb(91.88385%, 37.530518%, 10.455322%)" offset="0.726562"/><stop stop-opacity="1" stop-color="rgb(91.795349%, 37.19635%, 10.481262%)" offset="0.734375"/><stop stop-opacity="1" stop-color="rgb(91.706848%, 36.862183%, 10.507202%)" offset="0.742188"/><stop stop-opacity="1" stop-color="rgb(91.618347%, 36.528015%, 10.533142%)" offset="0.75"/><stop stop-opacity="1" stop-color="rgb(91.529846%, 36.193848%, 10.559082%)" offset="0.757812"/><stop stop-opacity="1" stop-color="rgb(91.441345%, 35.85968%, 10.586548%)" offset="0.765625"/><stop stop-opacity="1" stop-color="rgb(91.360474%, 35.510254%, 10.618591%)" offset="0.773438"/><stop stop-opacity="1" stop-color="rgb(91.28418%, 35.144043%, 10.655212%)" offset="0.78125"/><stop stop-opacity="1" stop-color="rgb(91.209412%, 34.777832%, 10.693359%)" offset="0.789062"/><stop stop-opacity="1" stop-color="rgb(91.134644%, 34.411621%, 10.731506%)" offset="0.796875"/><stop stop-opacity="1" stop-color="rgb(91.059875%, 34.04541%, 10.768127%)" offset="0.804687"/><stop stop-opacity="1" stop-color="rgb(90.985107%, 33.679199%, 10.806274%)" offset="0.8125"/><stop stop-opacity="1" stop-color="rgb(90.908813%, 33.312988%, 10.842896%)" offset="0.820312"/><stop stop-opacity="1" stop-color="rgb(90.834045%, 32.948303%, 10.881042%)" offset="0.828125"/><stop stop-opacity="1" stop-color="rgb(90.759277%, 32.582092%, 10.919189%)" offset="0.835938"/><stop stop-opacity="1" stop-color="rgb(90.684509%, 32.215881%, 10.955811%)" offset="0.84375"/><stop stop-opacity="1" stop-color="rgb(90.623474%, 31.915283%, 10.986328%)" offset="0.875"/><stop stop-opacity="1" stop-color="rgb(90.59906%, 31.799316%, 10.998535%)" offset="0.994583"/><stop stop-opacity="1" stop-color="rgb(90.59906%, 31.799316%, 10.998535%)" offset="1"/></linearGradient></defs><g clip-path="url(#65aadf4617)"><path fill="#000000" d="M 54.132812 17.265625 C 37.523438 6.074219 15.730469 9.457031 5.453125 24.820312 C -4.824219 40.1875 0.304688 61.71875 16.910156 72.910156 C 33.519531 84.101562 55.3125 80.71875 65.589844 65.351562 C 75.867188 49.988281 70.734375 28.457031 54.132812 17.265625 Z M 63.941406 59.34375 C 55.355469 72.183594 36.726562 74.734375 22.34375 65.039062 C 7.957031 55.34375 3.257812 37.070312 11.847656 24.230469 C 20.433594 11.390625 39.0625 8.839844 53.445312 18.535156 C 67.832031 28.230469 72.53125 46.503906 63.941406 59.34375 Z M 63.941406 59.34375 " fill-opacity="1" fill-rule="nonzero"/></g><path fill="#000000" d="M 52.71875 19.984375 C 40.847656 11.984375 25.53125 14.007812 18.511719 24.5 C 11.492188 34.996094 15.421875 49.996094 27.296875 57.992188 C 39.167969 65.992188 54.484375 63.972656 61.503906 53.476562 C 68.523438 42.980469 64.589844 27.984375 52.71875 19.984375 Z M 59.460938 49.402344 C 53.734375 57.964844 41.023438 59.464844 31.066406 52.757812 C 21.109375 46.046875 17.683594 33.664062 23.410156 25.101562 C 29.132812 16.539062 41.851562 15.039062 51.808594 21.75 C 61.761719 28.460938 65.191406 40.839844 59.460938 49.40625 Z M 59.460938 49.402344 " fill-opacity="1" fill-rule="nonzero"/><g clip-path="url(#5b519a29bf)"><g clip-path="url(#71239dfad9)"><path fill="#000000" d="M 56.457031 34.578125 C 56.363281 34.480469 56.265625 34.390625 56.167969 34.304688 L 57.027344 28.957031 L 55.546875 27.414062 L 54.339844 33.324219 C 53.730469 33.152344 53.136719 33.203125 52.5625 33.46875 L 46.34375 28.527344 C 46.742188 27.242188 45.816406 25.683594 44.15625 24.933594 C 42.394531 24.144531 40.476562 24.574219 39.871094 25.898438 C 39.371094 26.988281 39.914062 28.339844 41.105469 29.230469 L 37.855469 35.855469 C 37.6875 35.835938 37.515625 35.824219 37.34375 35.824219 C 36.476562 35.824219 35.679688 36.054688 34.949219 36.523438 L 34.992188 36.375 L 26.632812 29.769531 L 25.953125 32.929688 L 33.324219 38.402344 C 33.078125 38.949219 32.957031 39.527344 32.957031 40.128906 C 32.964844 40.414062 32.996094 40.695312 33.058594 40.972656 C 33.121094 41.253906 33.207031 41.523438 33.320312 41.785156 C 33.433594 42.046875 33.570312 42.292969 33.730469 42.53125 C 33.894531 42.765625 34.074219 42.980469 34.277344 43.179688 C 34.480469 43.378906 34.703125 43.558594 34.941406 43.714844 C 35.179688 43.871094 35.429688 44.003906 35.691406 44.109375 C 35.953125 44.21875 36.226562 44.300781 36.503906 44.355469 C 36.785156 44.410156 37.066406 44.4375 37.351562 44.4375 C 37.632812 44.4375 37.914062 44.410156 38.195312 44.355469 C 38.472656 44.300781 38.746094 44.21875 39.007812 44.109375 C 39.269531 44.003906 39.519531 43.871094 39.757812 43.714844 C 39.996094 43.558594 40.21875 43.378906 40.421875 43.179688 C 40.625 42.980469 40.804688 42.765625 40.96875 42.53125 C 41.128906 42.292969 41.265625 42.046875 41.378906 41.785156 C 41.492188 41.523438 41.578125 41.253906 41.640625 40.972656 C 41.703125 40.695312 41.734375 40.414062 41.742188 40.128906 C 41.742188 39.5 41.605469 38.902344 41.339844 38.335938 C 41.078125 37.765625 40.703125 37.28125 40.222656 36.878906 L 43.234375 30.207031 L 43.203125 30.089844 C 43.832031 30.1875 44.445312 30.121094 45.039062 29.886719 L 51.527344 34.914062 C 51.464844 35.511719 51.539062 36.09375 51.75 36.660156 C 51.960938 37.222656 52.28125 37.710938 52.71875 38.125 C 54.085938 39.546875 56.03125 39.898438 57.0625 38.917969 C 58.097656 37.941406 57.824219 36 56.457031 34.578125 Z M 56.457031 34.578125 " fill-opacity="1" fill-rule="nonzero"/></g></g><g clip-path="url(#f05ec90281)"><g clip-path="url(#1d4240aa4c)"><path fill="url(#385e34921b)" d="M 41.289062 22.898438 L 38.621094 28.914062 L 44.808594 31.679688 L 47.476562 25.664062 Z M 41.289062 22.898438 " fill-rule="nonzero"/></g></g><g clip-path="url(#85b0431916)"><g clip-path="url(#d6283fd9e9)"><path fill="url(#0e23f1d97e)" d="M 41 43.695312 L 40.878906 36.679688 L 33.695312 36.804688 L 33.816406 43.824219 Z M 41 43.695312 " fill-rule="nonzero"/></g></g><g clip-path="url(#c906366643)"><g clip-path="url(#fa328b3cba)"><path fill="url(#56c578e68a)" d="M 60.089844 36.753906 L 55.007812 30.886719 L 49.164062 35.984375 L 54.242188 41.851562 Z M 60.089844 36.753906 " fill-rule="nonzero"/></g></g><path fill="#000000" d="M 45.496094 51.960938 C 44.425781 51.957031 43.367188 51.855469 42.320312 51.65625 C 41.234375 51.449219 40.175781 51.148438 39.144531 50.75 C 38.074219 50.339844 37.046875 49.835938 36.0625 49.242188 C 35.039062 48.625 34.078125 47.917969 33.175781 47.132812 C 31.414062 45.605469 29.964844 43.824219 28.824219 41.785156 C 28.292969 40.832031 27.847656 39.839844 27.488281 38.804688 C 27.140625 37.804688 26.886719 36.785156 26.730469 35.738281 C 26.574219 34.722656 26.519531 33.703125 26.5625 32.679688 C 26.605469 31.675781 26.75 30.6875 27 29.71875 C 27.25 28.753906 27.601562 27.828125 28.058594 26.945312 C 28.523438 26.046875 29.085938 25.214844 29.746094 24.453125 C 30.398438 23.699219 31.128906 23.035156 31.9375 22.453125 C 32.730469 21.882812 33.578125 21.40625 34.480469 21.023438 C 35.386719 20.640625 36.324219 20.355469 37.292969 20.167969 C 38.277344 19.976562 39.277344 19.882812 40.28125 19.882812 C 41.351562 19.886719 42.410156 19.984375 43.457031 20.1875 C 44.542969 20.394531 45.601562 20.695312 46.632812 21.09375 C 47.703125 21.503906 48.730469 22.007812 49.714844 22.601562 C 50.738281 23.21875 51.699219 23.921875 52.601562 24.710938 C 54.363281 26.238281 55.8125 28.019531 56.953125 30.054688 C 57.484375 31.007812 57.933594 32.003906 58.289062 33.035156 C 58.636719 34.035156 58.890625 35.058594 59.050781 36.101562 C 59.203125 37.117188 59.261719 38.136719 59.214844 39.164062 C 59.171875 40.167969 59.027344 41.152344 58.777344 42.125 C 58.53125 43.089844 58.175781 44.015625 57.71875 44.898438 C 57.253906 45.796875 56.691406 46.628906 56.03125 47.390625 C 55.378906 48.144531 54.648438 48.808594 53.839844 49.390625 C 53.046875 49.960938 52.199219 50.4375 51.296875 50.820312 C 50.390625 51.203125 49.453125 51.488281 48.488281 51.675781 C 47.5 51.867188 46.5 51.960938 45.496094 51.960938 Z M 40.808594 21.011719 C 39.472656 21.011719 38.160156 21.199219 36.875 21.578125 C 35.84375 21.878906 34.863281 22.292969 33.925781 22.816406 C 33.015625 23.308594 32.1875 23.90625 31.433594 24.613281 C 30.085938 25.953125 29.125 27.527344 28.550781 29.335938 C 28.097656 30.816406 27.917969 32.328125 28.015625 33.875 C 28.082031 35.035156 28.273438 36.171875 28.59375 37.285156 C 28.722656 37.742188 28.875 38.191406 29.058594 38.628906 C 29.921875 40.6875 31.117188 42.527344 32.644531 44.152344 C 33.878906 45.453125 35.265625 46.554688 36.808594 47.464844 C 37.90625 48.113281 39.058594 48.648438 40.257812 49.078125 C 40.730469 49.246094 41.207031 49.386719 41.695312 49.5 C 43.015625 49.824219 44.351562 49.988281 45.710938 50 C 47.558594 50.015625 49.328125 49.648438 51.023438 48.898438 C 52.34375 48.296875 53.527344 47.488281 54.570312 46.476562 C 55.324219 45.746094 55.984375 44.9375 56.554688 44.054688 C 56.785156 43.699219 56.992188 43.332031 57.171875 42.953125 C 57.691406 41.648438 58.027344 40.300781 58.179688 38.90625 C 58.304688 37.691406 58.269531 36.484375 58.070312 35.285156 C 57.703125 33.175781 56.921875 31.230469 55.722656 29.457031 C 54.816406 28.09375 53.757812 26.859375 52.542969 25.757812 C 52.039062 25.289062 51.507812 24.855469 50.945312 24.460938 C 49.464844 23.390625 47.859375 22.558594 46.132812 21.972656 C 44.40625 21.382812 42.628906 21.0625 40.804688 21.011719 Z M 40.808594 21.011719 " fill-opacity="1" fill-rule="nonzero"/><g fill="#000000" fill-opacity="1"><g transform="translate(78.075591, 44.027633)"><g><path d="M 8.6875 0 L 8.671875 -5.0625 L 6.1875 -0.890625 L 5.3125 -0.890625 L 2.828125 -4.953125 L 2.828125 0 L 1 0 L 1 -8.4375 L 2.625 -8.4375 L 5.78125 -3.203125 L 8.890625 -8.4375 L 10.5 -8.4375 L 10.515625 0 Z M 8.6875 0 "/></g></g></g><g fill="#000000" fill-opacity="1"><g transform="translate(94.400646, 44.027633)"><g><path d="M 6.5625 -1.8125 L 2.640625 -1.8125 L 1.890625 0 L -0.109375 0 L 3.65625 -8.4375 L 5.578125 -8.4375 L 9.359375 0 L 7.3125 0 Z M 5.953125 -3.296875 L 4.609375 -6.53125 L 3.265625 -3.296875 Z M 5.953125 -3.296875 "/></g></g></g><g fill="#000000" fill-opacity="1"><g transform="translate(108.4471, 44.027633)"><g><path d="M 4.65625 -8.4375 C 5.40625 -8.4375 6.054688 -8.3125 6.609375 -8.0625 C 7.160156 -7.820312 7.582031 -7.472656 7.875 -7.015625 C 8.175781 -6.554688 8.328125 -6.007812 8.328125 -5.375 C 8.328125 -4.757812 8.175781 -4.21875 7.875 -3.75 C 7.582031 -3.289062 7.160156 -2.9375 6.609375 -2.6875 C 6.054688 -2.445312 5.40625 -2.328125 4.65625 -2.328125 L 2.953125 -2.328125 L 2.953125 0 L 1 0 L 1 -8.4375 Z M 4.546875 -3.921875 C 5.128906 -3.921875 5.570312 -4.046875 5.875 -4.296875 C 6.1875 -4.554688 6.34375 -4.914062 6.34375 -5.375 C 6.34375 -5.851562 6.1875 -6.21875 5.875 -6.46875 C 5.570312 -6.71875 5.128906 -6.84375 4.546875 -6.84375 L 2.953125 -6.84375 L 2.953125 -3.921875 Z M 4.546875 -3.921875 "/></g></g></g><g fill="#000000" fill-opacity="1"><g transform="translate(87.471478, 54.790571)"><g><path d="M 2.765625 0.109375 C 2.273438 0.109375 1.800781 0.0390625 1.34375 -0.09375 C 0.882812 -0.226562 0.519531 -0.398438 0.25 -0.609375 L 0.734375 -1.6875 C 0.992188 -1.488281 1.304688 -1.332031 1.671875 -1.21875 C 2.035156 -1.101562 2.398438 -1.046875 2.765625 -1.046875 C 3.171875 -1.046875 3.46875 -1.101562 3.65625 -1.21875 C 3.851562 -1.34375 3.953125 -1.503906 3.953125 -1.703125 C 3.953125 -1.847656 3.894531 -1.96875 3.78125 -2.0625 C 3.664062 -2.164062 3.519531 -2.242188 3.34375 -2.296875 C 3.164062 -2.359375 2.925781 -2.425781 2.625 -2.5 C 2.144531 -2.601562 1.753906 -2.710938 1.453125 -2.828125 C 1.160156 -2.941406 0.90625 -3.117188 0.6875 -3.359375 C 0.476562 -3.609375 0.375 -3.941406 0.375 -4.359375 C 0.375 -4.710938 0.46875 -5.035156 0.65625 -5.328125 C 0.851562 -5.617188 1.144531 -5.847656 1.53125 -6.015625 C 1.925781 -6.191406 2.40625 -6.28125 2.96875 -6.28125 C 3.363281 -6.28125 3.75 -6.234375 4.125 -6.140625 C 4.5 -6.046875 4.828125 -5.910156 5.109375 -5.734375 L 4.671875 -4.640625 C 4.097656 -4.960938 3.53125 -5.125 2.96875 -5.125 C 2.5625 -5.125 2.257812 -5.054688 2.0625 -4.921875 C 1.875 -4.796875 1.78125 -4.628906 1.78125 -4.421875 C 1.78125 -4.210938 1.890625 -4.054688 2.109375 -3.953125 C 2.335938 -3.847656 2.675781 -3.742188 3.125 -3.640625 C 3.59375 -3.535156 3.976562 -3.425781 4.28125 -3.3125 C 4.582031 -3.195312 4.835938 -3.019531 5.046875 -2.78125 C 5.265625 -2.539062 5.375 -2.21875 5.375 -1.8125 C 5.375 -1.457031 5.273438 -1.132812 5.078125 -0.84375 C 4.878906 -0.550781 4.582031 -0.316406 4.1875 -0.140625 C 3.800781 0.0234375 3.328125 0.109375 2.765625 0.109375 Z M 2.765625 0.109375 "/></g></g></g><g fill="#000000" fill-opacity="1"><g transform="translate(96.140125, 54.790571)"><g><path d="M 3.71875 0.109375 C 3.082031 0.109375 2.503906 -0.0234375 1.984375 -0.296875 C 1.472656 -0.578125 1.070312 -0.957031 0.78125 -1.4375 C 0.488281 -1.925781 0.34375 -2.472656 0.34375 -3.078125 C 0.34375 -3.679688 0.488281 -4.226562 0.78125 -4.71875 C 1.070312 -5.207031 1.472656 -5.585938 1.984375 -5.859375 C 2.503906 -6.140625 3.082031 -6.28125 3.71875 -6.28125 C 4.351562 -6.28125 4.925781 -6.140625 5.4375 -5.859375 C 5.957031 -5.585938 6.363281 -5.207031 6.65625 -4.71875 C 6.945312 -4.226562 7.09375 -3.679688 7.09375 -3.078125 C 7.09375 -2.472656 6.945312 -1.925781 6.65625 -1.4375 C 6.363281 -0.957031 5.957031 -0.578125 5.4375 -0.296875 C 4.925781 -0.0234375 4.351562 0.109375 3.71875 0.109375 Z M 3.71875 -1.109375 C 4.082031 -1.109375 4.410156 -1.191406 4.703125 -1.359375 C 4.992188 -1.523438 5.222656 -1.757812 5.390625 -2.0625 C 5.566406 -2.363281 5.65625 -2.703125 5.65625 -3.078125 C 5.65625 -3.460938 5.566406 -3.804688 5.390625 -4.109375 C 5.222656 -4.410156 4.992188 -4.644531 4.703125 -4.8125 C 4.410156 -4.976562 4.082031 -5.0625 3.71875 -5.0625 C 3.351562 -5.0625 3.023438 -4.976562 2.734375 -4.8125 C 2.441406 -4.644531 2.207031 -4.410156 2.03125 -4.109375 C 1.863281 -3.804688 1.78125 -3.460938 1.78125 -3.078125 C 1.78125 -2.703125 1.863281 -2.363281 2.03125 -2.0625 C 2.207031 -1.757812 2.441406 -1.523438 2.734375 -1.359375 C 3.023438 -1.191406 3.351562 -1.109375 3.71875 -1.109375 Z M 3.71875 -1.109375 "/></g></g></g><g fill="#000000" fill-opacity="1"><g transform="translate(106.624992, 54.790571)"><g><path d="M 0.734375 -6.171875 L 2.15625 -6.171875 L 2.15625 -1.15625 L 5.25 -1.15625 L 5.25 0 L 0.734375 0 Z M 0.734375 -6.171875 "/></g></g></g><g fill="#000000" fill-opacity="1"><g transform="translate(114.993875, 54.790571)"><g><path d="M 3.46875 0.109375 C 2.59375 0.109375 1.90625 -0.132812 1.40625 -0.625 C 0.914062 -1.113281 0.671875 -1.8125 0.671875 -2.71875 L 0.671875 -6.171875 L 2.109375 -6.171875 L 2.109375 -2.765625 C 2.109375 -1.660156 2.566406 -1.109375 3.484375 -1.109375 C 3.929688 -1.109375 4.269531 -1.238281 4.5 -1.5 C 4.738281 -1.769531 4.859375 -2.191406 4.859375 -2.765625 L 4.859375 -6.171875 L 6.265625 -6.171875 L 6.265625 -2.71875 C 6.265625 -1.8125 6.019531 -1.113281 5.53125 -0.625 C 5.039062 -0.132812 4.351562 0.109375 3.46875 0.109375 Z M 3.46875 0.109375 "/></g></g></g><g fill="#000000" fill-opacity="1"><g transform="translate(124.985015, 54.790571)"><g><path d="M 3.6875 0.109375 C 3.050781 0.109375 2.476562 -0.0234375 1.96875 -0.296875 C 1.46875 -0.578125 1.070312 -0.957031 0.78125 -1.4375 C 0.488281 -1.925781 0.34375 -2.472656 0.34375 -3.078125 C 0.34375 -3.691406 0.488281 -4.238281 0.78125 -4.71875 C 1.070312 -5.207031 1.46875 -5.585938 1.96875 -5.859375 C 2.476562 -6.140625 3.050781 -6.28125 3.6875 -6.28125 C 4.226562 -6.28125 4.710938 -6.179688 5.140625 -5.984375 C 5.578125 -5.796875 5.941406 -5.53125 6.234375 -5.1875 L 5.3125 -4.328125 C 4.894531 -4.816406 4.378906 -5.0625 3.765625 -5.0625 C 3.378906 -5.0625 3.035156 -4.976562 2.734375 -4.8125 C 2.441406 -4.644531 2.207031 -4.410156 2.03125 -4.109375 C 1.863281 -3.804688 1.78125 -3.460938 1.78125 -3.078125 C 1.78125 -2.703125 1.863281 -2.363281 2.03125 -2.0625 C 2.207031 -1.757812 2.441406 -1.523438 2.734375 -1.359375 C 3.035156 -1.191406 3.378906 -1.109375 3.765625 -1.109375 C 4.378906 -1.109375 4.894531 -1.351562 5.3125 -1.84375 L 6.234375 -1 C 5.941406 -0.632812 5.578125 -0.359375 5.140625 -0.171875 C 4.703125 0.015625 4.21875 0.109375 3.6875 0.109375 Z M 3.6875 0.109375 "/></g></g></g><g fill="#000000" fill-opacity="1"><g transform="translate(134.491243, 54.790571)"><g><path d="M 0.734375 -6.171875 L 2.15625 -6.171875 L 2.15625 0 L 0.734375 0 Z M 0.734375 -6.171875 "/></g></g></g><g fill="#000000" fill-opacity="1"><g transform="translate(140.426742, 54.790571)"><g><path d="M 3.71875 0.109375 C 3.082031 0.109375 2.503906 -0.0234375 1.984375 -0.296875 C 1.472656 -0.578125 1.070312 -0.957031 0.78125 -1.4375 C 0.488281 -1.925781 0.34375 -2.472656 0.34375 -3.078125 C 0.34375 -3.679688 0.488281 -4.226562 0.78125 -4.71875 C 1.070312 -5.207031 1.472656 -5.585938 1.984375 -5.859375 C 2.503906 -6.140625 3.082031 -6.28125 3.71875 -6.28125 C 4.351562 -6.28125 4.925781 -6.140625 5.4375 -5.859375 C 5.957031 -5.585938 6.363281 -5.207031 6.65625 -4.71875 C 6.945312 -4.226562 7.09375 -3.679688 7.09375 -3.078125 C 7.09375 -2.472656 6.945312 -1.925781 6.65625 -1.4375 C 6.363281 -0.957031 5.957031 -0.578125 5.4375 -0.296875 C 4.925781 -0.0234375 4.351562 0.109375 3.71875 0.109375 Z M 3.71875 -1.109375 C 4.082031 -1.109375 4.410156 -1.191406 4.703125 -1.359375 C 4.992188 -1.523438 5.222656 -1.757812 5.390625 -2.0625 C 5.566406 -2.363281 5.65625 -2.703125 5.65625 -3.078125 C 5.65625 -3.460938 5.566406 -3.804688 5.390625 -4.109375 C 5.222656 -4.410156 4.992188 -4.644531 4.703125 -4.8125 C 4.410156 -4.976562 4.082031 -5.0625 3.71875 -5.0625 C 3.351562 -5.0625 3.023438 -4.976562 2.734375 -4.8125 C 2.441406 -4.644531 2.207031 -4.410156 2.03125 -4.109375 C 1.863281 -3.804688 1.78125 -3.460938 1.78125 -3.078125 C 1.78125 -2.703125 1.863281 -2.363281 2.03125 -2.0625 C 2.207031 -1.757812 2.441406 -1.523438 2.734375 -1.359375 C 3.023438 -1.191406 3.351562 -1.109375 3.71875 -1.109375 Z M 3.71875 -1.109375 "/></g></g></g><g fill="#000000" fill-opacity="1"><g transform="translate(150.911606, 54.790571)"><g><path d="M 6.390625 -6.171875 L 6.390625 0 L 5.21875 0 L 2.140625 -3.75 L 2.140625 0 L 0.734375 0 L 0.734375 -6.171875 L 1.90625 -6.171875 L 4.984375 -2.421875 L 4.984375 -6.171875 Z M 6.390625 -6.171875 "/></g></g></g><g fill="#000000" fill-opacity="1"><g transform="translate(161.079074, 54.790571)"><g><path d="M 5.5 -1.140625 L 5.5 0 L 0.734375 0 L 0.734375 -6.171875 L 5.390625 -6.171875 L 5.390625 -5.015625 L 2.15625 -5.015625 L 2.15625 -3.6875 L 5.015625 -3.6875 L 5.015625 -2.578125 L 2.15625 -2.578125 L 2.15625 -1.140625 Z M 5.5 -1.140625 "/></g></g></g><g fill="#000000" fill-opacity="1"><g transform="translate(170.03867, 54.790571)"><g><path d="M 2.765625 0.109375 C 2.273438 0.109375 1.800781 0.0390625 1.34375 -0.09375 C 0.882812 -0.226562 0.519531 -0.398438 0.25 -0.609375 L 0.734375 -1.6875 C 0.992188 -1.488281 1.304688 -1.332031 1.671875 -1.21875 C 2.035156 -1.101562 2.398438 -1.046875 2.765625 -1.046875 C 3.171875 -1.046875 3.46875 -1.101562 3.65625 -1.21875 C 3.851562 -1.34375 3.953125 -1.503906 3.953125 -1.703125 C 3.953125 -1.847656 3.894531 -1.96875 3.78125 -2.0625 C 3.664062 -2.164062 3.519531 -2.242188 3.34375 -2.296875 C 3.164062 -2.359375 2.925781 -2.425781 2.625 -2.5 C 2.144531 -2.601562 1.753906 -2.710938 1.453125 -2.828125 C 1.160156 -2.941406 0.90625 -3.117188 0.6875 -3.359375 C 0.476562 -3.609375 0.375 -3.941406 0.375 -4.359375 C 0.375 -4.710938 0.46875 -5.035156 0.65625 -5.328125 C 0.851562 -5.617188 1.144531 -5.847656 1.53125 -6.015625 C 1.925781 -6.191406 2.40625 -6.28125 2.96875 -6.28125 C 3.363281 -6.28125 3.75 -6.234375 4.125 -6.140625 C 4.5 -6.046875 4.828125 -5.910156 5.109375 -5.734375 L 4.671875 -4.640625 C 4.097656 -4.960938 3.53125 -5.125 2.96875 -5.125 C 2.5625 -5.125 2.257812 -5.054688 2.0625 -4.921875 C 1.875 -4.796875 1.78125 -4.628906 1.78125 -4.421875 C 1.78125 -4.210938 1.890625 -4.054688 2.109375 -3.953125 C 2.335938 -3.847656 2.675781 -3.742188 3.125 -3.640625 C 3.59375 -3.535156 3.976562 -3.425781 4.28125 -3.3125 C 4.582031 -3.195312 4.835938 -3.019531 5.046875 -2.78125 C 5.265625 -2.539062 5.375 -2.21875 5.375 -1.8125 C 5.375 -1.457031 5.273438 -1.132812 5.078125 -0.84375 C 4.878906 -0.550781 4.582031 -0.316406 4.1875 -0.140625 C 3.800781 0.0234375 3.328125 0.109375 2.765625 0.109375 Z M 2.765625 0.109375 "/></g></g></g></svg>